{
    "asset" : {
        "generator" : "Khronos glTF Blender I/O v1.3.48",
        "version" : "2.0"
    },
    "scene" : 0,
    "scenes" : [
        {
            "name" : "Scene",
            "nodes" : [
                0,
                1
            ]
        }
    ],
    "nodes" : [
        {
            "mesh" : 0,
            "name" : "Cube",
            "scale" : [
                23,
                6,
                33
            ]
        },
        {
            "name" : "Camera",
            "rotation" : [
                0.483536034822464,
                0.33687159419059753,
                -0.20870360732078552,
                0.7804827094078064
            ],
            "translation" : [
                7.358891487121582,
                4.958309173583984,
                6.925790786743164
            ]
        }
    ],
    "materials" : [
        {
            "doubleSided" : true,
            "emissiveFactor" : [
                0,
                0,
                0
            ],
            "name" : "Vagon stable walls",
            "pbrMetallicRoughness" : {
                "baseColorFactor" : [
                    0.5088812708854675,
                    0.539479672908783,
                    0.5775806307792664,
                    1
                ],
                "metallicFactor" : 0,
                "roughnessFactor" : 0.5
            }
        },
        {
            "doubleSided" : true,
            "emissiveFactor" : [
                0,
                0,
                0
            ],
            "name" : "Vagon stable roof skirts",
            "pbrMetallicRoughness" : {
                "baseColorFactor" : [
                    0.10777425765991211,
                    0.11459913849830627,
                    0.1424006223678589,
                    1
                ],
                "metallicFactor" : 0,
                "roughnessFactor" : 0.5
            }
        },
        {
            "doubleSided" : true,
            "emissiveFactor" : [
                0,
                0,
                0
            ],
            "name" : "Vagon stable roof",
            "pbrMetallicRoughness" : {
                "baseColorFactor" : [
                    0.21223078668117523,
                    0.2541521489620209,
                    0.30946895480155945,
                    1
                ],
                "metallicFactor" : 0,
                "roughnessFactor" : 1
            }
        },
        {
            "doubleSided" : true,
            "emissiveFactor" : [
                0,
                0,
                0
            ],
            "name" : "Window sill blue",
            "pbrMetallicRoughness" : {
                "baseColorFactor" : [
                    0.00541025260463357,
                    0.010894311591982841,
                    0.05281937122344971,
                    1
                ],
                "metallicFactor" : 0,
                "roughnessFactor" : 1
            }
        },
        {
            "doubleSided" : true,
            "emissiveFactor" : [
                0,
                0,
                0
            ],
            "name" : "Glass",
            "pbrMetallicRoughness" : {
                "baseColorFactor" : [
                    0.006540617905557156,
                    0.007481751032173634,
                    0.014669502153992653,
                    1
                ],
                "metallicFactor" : 0,
                "roughnessFactor" : 0
            }
        },
        {
            "doubleSided" : true,
            "emissiveFactor" : [
                0,
                0,
                0
            ],
            "name" : "Garage door",
            "pbrMetallicRoughness" : {
                "baseColorFactor" : [
                    0.3277781009674072,
                    0.3613067865371704,
                    0.43965715169906616,
                    1
                ],
                "metallicFactor" : 0.699999988079071,
                "roughnessFactor" : 0.30000001192092896
            }
        }
    ],
    "meshes" : [
        {
            "name" : "Cube.009",
            "primitives" : [
                {
                    "attributes" : {
                        "POSITION" : 0,
                        "NORMAL" : 1,
                        "TEXCOORD_0" : 2
                    },
                    "indices" : 3,
                    "material" : 0
                },
                {
                    "attributes" : {
                        "POSITION" : 4,
                        "NORMAL" : 5,
                        "TEXCOORD_0" : 6
                    },
                    "indices" : 7,
                    "material" : 1
                },
                {
                    "attributes" : {
                        "POSITION" : 8,
                        "NORMAL" : 9,
                        "TEXCOORD_0" : 10
                    },
                    "indices" : 11,
                    "material" : 2
                },
                {
                    "attributes" : {
                        "POSITION" : 12,
                        "NORMAL" : 13,
                        "TEXCOORD_0" : 14
                    },
                    "indices" : 15,
                    "material" : 3
                },
                {
                    "attributes" : {
                        "POSITION" : 16,
                        "NORMAL" : 17,
                        "TEXCOORD_0" : 18
                    },
                    "indices" : 19,
                    "material" : 4
                },
                {
                    "attributes" : {
                        "POSITION" : 20,
                        "NORMAL" : 21,
                        "TEXCOORD_0" : 22
                    },
                    "indices" : 23,
                    "material" : 5
                }
            ]
        }
    ],
    "accessors" : [
        {
            "bufferView" : 0,
            "componentType" : 5126,
            "count" : 9061,
            "max" : [
                1.452067494392395,
                3.4832818508148193,
                1.3460092544555664
            ],
            "min" : [
                -1.0456677675247192,
                0,
                -1.221421718597412
            ],
            "type" : "VEC3"
        },
        {
            "bufferView" : 1,
            "componentType" : 5126,
            "count" : 9061,
            "type" : "VEC3"
        },
        {
            "bufferView" : 2,
            "componentType" : 5126,
            "count" : 9061,
            "type" : "VEC2"
        },
        {
            "bufferView" : 3,
            "componentType" : 5123,
            "count" : 15240,
            "type" : "SCALAR"
        },
        {
            "bufferView" : 4,
            "componentType" : 5126,
            "count" : 3104,
            "max" : [
                1.4952595233917236,
                3.841182231903076,
                1.3681533336639404
            ],
            "min" : [
                -0.5272374749183655,
                2,
                -1.2384679317474365
            ],
            "type" : "VEC3"
        },
        {
            "bufferView" : 5,
            "componentType" : 5126,
            "count" : 3104,
            "type" : "VEC3"
        },
        {
            "bufferView" : 6,
            "componentType" : 5126,
            "count" : 3104,
            "type" : "VEC2"
        },
        {
            "bufferView" : 7,
            "componentType" : 5123,
            "count" : 3684,
            "type" : "SCALAR"
        },
        {
            "bufferView" : 8,
            "componentType" : 5126,
            "count" : 2450,
            "max" : [
                1.4861018657684326,
                3.4832818508148193,
                1.2735140323638916
            ],
            "min" : [
                -1.1326242685317993,
                2,
                -1.221421718597412
            ],
            "type" : "VEC3"
        },
        {
            "bufferView" : 9,
            "componentType" : 5126,
            "count" : 2450,
            "type" : "VEC3"
        },
        {
            "bufferView" : 10,
            "componentType" : 5126,
            "count" : 2450,
            "type" : "VEC2"
        },
        {
            "bufferView" : 11,
            "componentType" : 5123,
            "count" : 2928,
            "type" : "SCALAR"
        },
        {
            "bufferView" : 12,
            "componentType" : 5126,
            "count" : 1464,
            "max" : [
                1.3686871528625488,
                1.8590750694274902,
                -0.9189148545265198
            ],
            "min" : [
                0.3118096590042114,
                0.3418199419975281,
                -1.1816341876983643
            ],
            "type" : "VEC3"
        },
        {
            "bufferView" : 13,
            "componentType" : 5126,
            "count" : 1464,
            "type" : "VEC3"
        },
        {
            "bufferView" : 14,
            "componentType" : 5126,
            "count" : 1464,
            "type" : "VEC2"
        },
        {
            "bufferView" : 15,
            "componentType" : 5123,
            "count" : 1920,
            "type" : "SCALAR"
        },
        {
            "bufferView" : 16,
            "componentType" : 5126,
            "count" : 768,
            "max" : [
                1.3491618633270264,
                1.8107378482818604,
                -0.9219887852668762
            ],
            "min" : [
                0.32781732082366943,
                0.39757031202316284,
                -1.1730661392211914
            ],
            "type" : "VEC3"
        },
        {
            "bufferView" : 17,
            "componentType" : 5126,
            "count" : 768,
            "type" : "VEC3"
        },
        {
            "bufferView" : 18,
            "componentType" : 5126,
            "count" : 768,
            "type" : "VEC2"
        },
        {
            "bufferView" : 19,
            "componentType" : 5123,
            "count" : 960,
            "type" : "SCALAR"
        },
        {
            "bufferView" : 20,
            "componentType" : 5126,
            "count" : 1614,
            "max" : [
                1.304233431816101,
                1.92327082157135,
                0.7590123414993286
            ],
            "min" : [
                1.0936033725738525,
                -0.059989333152770996,
                -0.6466014981269836
            ],
            "type" : "VEC3"
        },
        {
            "bufferView" : 21,
            "componentType" : 5126,
            "count" : 1614,
            "type" : "VEC3"
        },
        {
            "bufferView" : 22,
            "componentType" : 5126,
            "count" : 1614,
            "type" : "VEC2"
        },
        {
            "bufferView" : 23,
            "componentType" : 5123,
            "count" : 1872,
            "type" : "SCALAR"
        }
    ],
    "bufferViews" : [
        {
            "buffer" : 0,
            "byteLength" : 108732,
            "byteOffset" : 0
        },
        {
            "buffer" : 0,
            "byteLength" : 108732,
            "byteOffset" : 108732
        },
        {
            "buffer" : 0,
            "byteLength" : 72488,
            "byteOffset" : 217464
        },
        {
            "buffer" : 0,
            "byteLength" : 30480,
            "byteOffset" : 289952
        },
        {
            "buffer" : 0,
            "byteLength" : 37248,
            "byteOffset" : 320432
        },
        {
            "buffer" : 0,
            "byteLength" : 37248,
            "byteOffset" : 357680
        },
        {
            "buffer" : 0,
            "byteLength" : 24832,
            "byteOffset" : 394928
        },
        {
            "buffer" : 0,
            "byteLength" : 7368,
            "byteOffset" : 419760
        },
        {
            "buffer" : 0,
            "byteLength" : 29400,
            "byteOffset" : 427128
        },
        {
            "buffer" : 0,
            "byteLength" : 29400,
            "byteOffset" : 456528
        },
        {
            "buffer" : 0,
            "byteLength" : 19600,
            "byteOffset" : 485928
        },
        {
            "buffer" : 0,
            "byteLength" : 5856,
            "byteOffset" : 505528
        },
        {
            "buffer" : 0,
            "byteLength" : 17568,
            "byteOffset" : 511384
        },
        {
            "buffer" : 0,
            "byteLength" : 17568,
            "byteOffset" : 528952
        },
        {
            "buffer" : 0,
            "byteLength" : 11712,
            "byteOffset" : 546520
        },
        {
            "buffer" : 0,
            "byteLength" : 3840,
            "byteOffset" : 558232
        },
        {
            "buffer" : 0,
            "byteLength" : 9216,
            "byteOffset" : 562072
        },
        {
            "buffer" : 0,
            "byteLength" : 9216,
            "byteOffset" : 571288
        },
        {
            "buffer" : 0,
            "byteLength" : 6144,
            "byteOffset" : 580504
        },
        {
            "buffer" : 0,
            "byteLength" : 1920,
            "byteOffset" : 586648
        },
        {
            "buffer" : 0,
            "byteLength" : 19368,
            "byteOffset" : 588568
        },
        {
            "buffer" : 0,
            "byteLength" : 19368,
            "byteOffset" : 607936
        },
        {
            "buffer" : 0,
            "byteLength" : 12912,
            "byteOffset" : 627304
        },
        {
            "buffer" : 0,
            "byteLength" : 3744,
            "byteOffset" : 640216
        }
    ],
    "buffers" : [
        {
            "byteLength" : 643960,
            "uri" : "data:application/octet-stream;base64,"
        }
    ]
}
